<?xml version="1.0" standalone="no"?>
<!DOCTYPE svg PUBLIC "-//W3C//DTD SVG 20010904//EN"
 "http://www.w3.org/TR/2001/REC-SVG-20010904/DTD/svg10.dtd">
<svg version="1.0" xmlns="http://www.w3.org/2000/svg"
 width="296.000000pt" height="296.000000pt" viewBox="0 0 296.000000 296.000000"
 preserveAspectRatio="xMidYMid meet">

<g transform="translate(0.000000,296.000000) scale(0.100000,-0.100000)"
fill="#000000" stroke="none">
<path d="M0 1480 l0 -1480 65 0 c66 0 81 10 53 38 -8 8 -8 12 -1 12 13 0 24
38 13 45 -5 3 -9 22 -9 43 0 20 -1 58 -2 83 -1 25 1 51 5 57 4 7 4 22 0 34 -9
28 -11 169 -2 174 3 2 4 22 1 44 -4 26 -2 40 6 40 6 0 11 4 11 10 0 5 -7 7
-15 4 -22 -9 -18 5 7 28 l23 20 -25 -6 c-22 -4 -23 -4 -8 8 20 14 25 42 6 30
-7 -5 -9 -1 -6 12 3 11 2 43 -2 72 -6 50 -5 53 18 59 16 4 20 8 11 13 -7 5
-19 6 -28 3 -13 -4 -14 -3 -2 5 11 8 12 14 4 24 -19 24 -23 47 -7 41 15 -5 20
12 6 21 -5 3 -6 26 -2 50 4 30 3 47 -4 50 -7 3 -5 8 4 15 8 6 10 11 4 11 -6 0
-10 20 -10 50 1 27 5 50 10 50 5 0 3 7 -4 15 -10 12 -10 15 1 15 11 0 11 2 -1
10 -13 8 -13 13 -2 31 10 16 11 24 3 29 -7 4 2 7 19 7 17 0 36 5 43 13 10 10
4 12 -28 8 l-41 -6 -1 75 c-1 63 1 72 13 62 16 -13 18 -5 4 20 -5 10 -10 36
-12 57 -1 21 -7 42 -12 47 -7 4 -6 10 3 16 12 8 13 14 3 35 -6 14 -8 26 -3 26
4 0 7 16 6 35 -2 19 1 35 6 35 6 0 6 8 0 18 -7 13 -7 22 1 30 8 8 7 13 -5 18
-13 4 -14 10 -7 24 6 11 7 21 3 23 -10 6 -9 59 1 75 4 7 3 12 -2 12 -17 0 -10
49 7 53 15 4 15 5 0 6 -14 1 -15 7 -8 39 11 48 11 54 -1 47 -13 -8 -13 1 0 26
8 14 7 19 -2 19 -8 1 -5 7 6 15 12 9 15 15 7 15 -10 0 -12 10 -8 34 3 22 1 37
-6 40 -9 3 -9 5 1 5 15 1 16 43 0 59 -9 9 -8 12 5 12 9 0 17 4 17 10 0 5 -7 7
-15 4 -8 -4 -15 -1 -15 5 0 6 4 11 8 11 4 0 8 15 9 33 1 17 3 39 5 47 1 8 -3
14 -10 12 -9 -1 -8 5 4 23 15 23 15 25 -1 25 -12 0 -15 5 -9 23 8 23 7 85 -2
98 -2 4 -1 10 4 13 9 5 8 43 -3 68 -4 9 -4 22 0 28 10 16 12 109 3 104 -5 -3
-8 4 -8 16 0 11 7 23 16 27 8 3 13 12 10 20 -4 9 1 17 14 20 11 3 20 9 20 12
0 4 25 4 56 0 30 -4 69 -6 86 -3 17 2 38 -2 46 -8 9 -8 16 -8 20 -2 12 17 39
23 51 11 8 -8 14 -8 22 0 8 8 18 7 37 -3 18 -9 31 -10 45 -3 13 8 22 8 30 0 6
-6 16 -11 21 -11 6 0 4 5 -4 10 -11 7 -1 10 36 10 27 0 56 -6 62 -12 10 -10
15 -10 23 2 8 11 12 12 15 3 4 -8 13 -9 28 -3 31 11 119 8 129 -5 4 -7 10 -7
15 0 11 15 152 19 152 4 0 -7 9 -6 25 5 28 18 39 21 30 6 -7 -11 51 -8 62 3
10 10 25 8 18 -2 -3 -6 15 -10 42 -10 27 0 77 0 113 -1 36 0 86 1 112 3 26 2
45 0 42 -5 -3 -4 9 -8 25 -8 23 0 31 5 31 18 0 14 2 14 9 3 10 -15 54 -19 83
-7 9 4 26 3 37 -4 12 -6 21 -7 21 -2 0 13 103 4 112 -10 5 -10 8 -8 8 5 0 25
20 21 21 -5 0 -21 1 -21 8 -4 6 17 19 20 84 22 44 2 77 -1 77 -7 0 -10 67 -10
84 -1 17 9 71 8 84 -1 8 -6 12 -6 12 2 0 14 32 14 65 -1 18 -8 32 -9 43 -2 24
14 112 10 122 -6 5 -8 15 -10 26 -5 11 5 35 9 54 11 19 2 53 5 74 8 24 4 45 1
54 -7 12 -9 16 -9 19 1 3 6 10 9 16 5 18 -11 56 -13 62 -3 3 5 12 7 20 4 8 -4
41 -7 72 -8 l58 -1 2 -898 c2 -494 -1 -896 -6 -893 -4 3 -8 -1 -8 -9 0 -8 4
-12 8 -9 4 2 8 -39 8 -91 0 -67 -3 -95 -11 -95 -9 0 -9 -3 0 -12 15 -15 17
-132 2 -123 -5 3 -10 1 -10 -4 0 -6 4 -11 9 -11 5 0 9 -40 9 -89 0 -73 -2 -89
-14 -84 -8 3 -14 -1 -14 -10 0 -19 17 -31 22 -16 2 6 4 -15 4 -48 1 -32 -1
-46 -3 -30 -2 15 -9 27 -15 27 -6 0 -8 -10 -4 -23 3 -12 6 -28 6 -35 0 -7 5
-10 10 -7 6 4 10 -5 10 -19 0 -14 -4 -26 -10 -26 -5 0 -10 -7 -10 -15 0 -8 4
-15 9 -15 11 0 8 -111 -4 -129 -5 -10 -4 -12 3 -7 19 11 16 -89 -3 -104 -15
-13 -11 -35 6 -25 5 4 9 -1 9 -9 0 -12 11 -16 50 -16 l50 0 0 1480 0 1480
-1480 0 -1480 0 0 -1480z m2637 1444 c-3 -3 -12 -4 -19 -1 -8 3 -5 6 6 6 11 1
17 -2 13 -5z m-674 -11 c-7 -2 -21 -2 -30 0 -10 3 -4 5 12 5 17 0 24 -2 18 -5z
m94 1 c-3 -3 -12 -4 -19 -1 -8 3 -5 6 6 6 11 1 17 -2 13 -5z m-1434 -11 c-7
-2 -21 -2 -30 0 -10 3 -4 5 12 5 17 0 24 -2 18 -5z m1664 1 c-3 -3 -12 -4 -19
-1 -8 3 -5 6 6 6 11 1 17 -2 13 -5z m630 -396 c-3 -8 -6 -5 -6 6 -1 11 2 17 5
13 3 -3 4 -12 1 -19z m-10 -1040 c-3 -8 -6 -5 -6 6 -1 11 2 17 5 13 3 -3 4
-12 1 -19z m0 -100 c-3 -8 -6 -5 -6 6 -1 11 2 17 5 13 3 -3 4 -12 1 -19z
m-2860 -715 c-3 -10 -5 -2 -5 17 0 19 2 27 5 18 2 -10 2 -26 0 -35z"/>
<path d="M1770 2682 c0 -6 -8 -13 -17 -15 -16 -4 -16 -5 -1 -6 18 -1 34 16 24
26 -3 4 -6 1 -6 -5z"/>
<path d="M1542 2610 c0 -14 2 -19 5 -12 2 6 2 18 0 25 -3 6 -5 1 -5 -13z"/>
<path d="M1330 2575 c-14 -8 -20 -14 -14 -15 5 0 19 7 30 15 24 18 16 19 -16
0z"/>
<path d="M2628 2524 c2 -19 7 -34 11 -34 10 0 7 60 -4 64 -7 2 -9 -9 -7 -30z"/>
<path d="M2093 2533 c9 -2 25 -2 35 0 9 3 1 5 -18 5 -19 0 -27 -2 -17 -5z"/>
<path d="M2452 2494 c-45 -31 -17 -104 41 -104 33 0 57 24 57 59 0 52 -53 77
-98 45z m28 -13 c0 -6 -4 -13 -10 -16 -5 -3 -10 1 -10 9 0 9 5 16 10 16 6 0
10 -4 10 -9z"/>
<path d="M1813 2468 c-13 -6 -23 -15 -23 -20 0 -4 -47 -8 -105 -8 -85 0 -107
-3 -111 -15 -9 -23 5 -65 21 -65 11 0 15 -12 15 -44 0 -50 16 -69 57 -64 26 3
28 7 34 58 l5 55 5 -55 4 -55 45 -3 c25 -2 63 -5 85 -7 22 -2 64 -3 93 -4 44
-1 55 -5 59 -20 6 -22 43 -41 83 -41 21 0 35 8 46 26 12 17 20 22 27 15 14
-14 64 -14 72 0 5 7 13 5 25 -6 10 -9 44 -20 76 -25 33 -5 88 -16 124 -24 90
-21 99 -20 111 11 18 48 14 95 -9 114 -12 9 -22 23 -22 31 0 40 -73 54 -85 17
-5 -14 -12 -18 -23 -14 -36 14 -71 17 -88 7 -16 -9 -20 -5 -29 21 -7 21 -19
33 -39 38 -16 5 -33 6 -37 3 -4 -2 -24 -33 -44 -69 -20 -36 -37 -65 -39 -65
-2 0 -1 22 2 50 4 47 3 50 -24 61 -16 6 -48 8 -71 5 -23 -3 -45 -1 -48 4 -3 6
-25 10 -49 10 -46 0 -66 13 -66 45 0 41 -32 55 -77 33z m57 -18 c0 -9 -47 -20
-55 -12 -2 3 3 11 12 17 17 13 43 10 43 -5z m-152 -42 c2 -13 -3 -18 -17 -18
-19 0 -21 -6 -21 -55 0 -48 -2 -55 -20 -55 -18 0 -20 7 -20 55 0 48 -3 55 -19
55 -11 0 -23 5 -26 10 -13 21 9 31 63 28 45 -2 58 -7 60 -20z m52 7 c0 -8 -9
-15 -20 -15 -11 0 -20 7 -20 15 0 8 9 15 20 15 11 0 20 -7 20 -15z m98 3 c20
-20 14 -24 -28 -20 -37 4 -39 6 -23 18 22 17 36 17 51 2z m-98 -89 c0 -42 -3
-49 -20 -49 -17 0 -20 7 -20 48 0 53 5 63 26 55 9 -3 14 -21 14 -54z m120 15
c0 -21 -5 -24 -36 -24 -21 0 -33 -4 -29 -10 3 -6 17 -7 30 -4 30 8 41 -12 14
-26 -26 -15 -65 -5 -78 18 -14 26 -1 73 23 81 34 13 76 -7 76 -35z m104 20
c18 -17 19 -27 10 -72 -9 -42 -34 -31 -34 15 0 45 -24 40 -28 -6 -3 -24 -8
-31 -20 -29 -13 3 -16 13 -15 43 2 22 5 46 8 53 6 17 61 15 79 -4z m296 -36
c6 -29 13 -63 16 -75 5 -18 2 -23 -14 -23 -11 0 -22 7 -26 15 -6 17 -56 21
-56 5 0 -5 -9 -10 -20 -10 -27 0 -25 12 13 81 24 43 38 59 54 59 18 0 23 -9
33 -52z m-185 32 c25 -9 25 -12 19 -62 -4 -29 -11 -61 -16 -70 -10 -20 -40
-23 -69 -8 -30 17 -23 33 11 27 17 -4 30 -2 30 3 0 6 -6 10 -14 10 -22 0 -46
29 -46 55 0 26 24 55 45 55 8 0 25 -4 40 -10z m395 -41 c0 -12 10 -23 25 -29
18 -7 25 -17 25 -37 0 -47 -11 -74 -29 -71 -12 3 -15 13 -13 41 4 45 -16 51
-24 7 -5 -21 -12 -30 -25 -30 -11 0 -19 4 -19 10 0 11 20 109 25 127 6 19 35
4 35 -18z m-77 -20 c16 -25 0 -89 -23 -89 -15 0 -17 6 -13 40 7 50 -13 55 -23
5 -4 -26 -11 -35 -26 -35 -16 0 -18 5 -13 38 4 20 8 43 11 50 5 18 74 11 87
-9z"/>
<path d="M1830 2350 c0 -5 5 -10 10 -10 6 0 10 5 10 10 0 6 -4 10 -10 10 -5 0
-10 -4 -10 -10z"/>
<path d="M2240 2305 c0 -8 5 -15 10 -15 6 0 10 7 10 15 0 8 -4 15 -10 15 -5 0
-10 -7 -10 -15z"/>
<path d="M2060 2309 c0 -24 23 -21 28 4 2 10 -3 17 -12 17 -10 0 -16 -9 -16
-21z"/>
<path d="M2631 2360 c1 -121 10 -149 27 -86 10 36 5 83 -11 104 -6 8 -5 17 3
27 9 10 9 15 1 15 -15 0 -14 37 1 42 7 3 5 7 -5 11 -17 6 -18 -3 -16 -113z"/>
<path d="M355 2424 c-25 -25 -16 -75 18 -94 24 -13 30 -13 55 0 32 19 39 52
18 86 -19 28 -66 33 -91 8z m35 -14 c0 -5 -7 -10 -16 -10 -8 0 -12 5 -9 10 3
6 10 10 16 10 5 0 9 -4 9 -10z"/>
<path d="M1202 2419 c-22 -8 -23 -12 -16 -71 12 -109 14 -113 65 -114 24 -1
54 2 67 7 19 7 24 5 32 -15 5 -13 14 -27 19 -31 20 -12 49 5 60 35 9 27 12 29
37 20 33 -13 91 4 98 28 9 36 4 88 -11 104 -17 19 -78 24 -102 9 -8 -5 -26 -5
-42 1 -21 7 -36 6 -60 -6 -34 -17 -57 -11 -92 25 -20 21 -22 22 -55 8z m45
-29 c3 -13 14 -20 29 -20 28 0 30 -3 39 -57 6 -39 5 -43 -13 -43 -16 0 -21 8
-24 32 -2 17 -9 34 -17 36 -11 4 -13 -3 -8 -32 4 -28 2 -39 -9 -43 -22 -8 -24
-2 -33 76 -7 66 -6 71 12 71 10 0 21 -9 24 -20z m289 -15 c16 -13 17 -16 4
-24 -9 -7 -18 -7 -24 -1 -17 17 -26 11 -26 -15 0 -22 3 -25 24 -19 26 6 39 -5
27 -25 -5 -7 -23 -11 -47 -9 -38 3 -39 4 -42 43 -5 58 39 84 84 50z m-111 -44
c0 -53 -19 -70 -62 -55 -22 7 -29 17 -31 42 -5 45 13 64 57 60 35 -3 36 -4 36
-47z m-25 -92 c0 -5 -7 -9 -15 -9 -15 0 -20 12 -9 23 8 8 24 -1 24 -14z"/>
<path d="M1370 2325 c0 -17 5 -25 13 -22 6 2 12 12 12 22 0 10 -6 20 -12 23
-8 2 -13 -6 -13 -23z"/>
<path d="M1043 2400 c-13 -6 -23 -18 -23 -30 0 -15 -7 -20 -28 -20 -15 0 -37
-7 -49 -15 -19 -13 -21 -13 -26 4 -2 11 -14 24 -25 30 -17 9 -26 6 -51 -15
-17 -14 -28 -31 -25 -39 4 -10 0 -12 -15 -8 -49 13 -101 -20 -101 -63 0 -21
-2 -23 -13 -12 -7 7 -14 26 -15 42 -1 17 -8 33 -15 38 -13 8 -12 8 -102 -17
-139 -40 -155 -46 -155 -65 0 -35 41 -151 56 -157 27 -10 64 14 64 42 0 28 16
32 44 10 43 -32 123 -5 133 45 l5 30 20 -25 c22 -28 63 -33 94 -11 10 8 29 12
41 9 12 -2 39 1 60 8 21 7 52 14 68 15 56 3 180 27 192 36 11 9 11 29 -3 96
-3 15 -17 29 -38 37 -19 8 -36 21 -39 30 -7 17 -21 18 -54 5z m44 -30 c4 -14
14 -20 33 -20 31 0 40 -15 40 -66 0 -22 -5 -34 -14 -34 -15 0 -26 21 -26 51 0
10 -6 19 -14 19 -11 0 -13 -10 -9 -40 5 -36 3 -40 -16 -40 -17 0 -21 6 -21 33
0 17 -4 49 -9 69 -5 20 -6 39 -3 42 12 13 34 5 39 -14z m-197 -20 c0 -12 -40
-34 -47 -26 -9 8 17 36 33 36 8 0 14 -4 14 -10z m140 -25 c10 -12 9 -16 -2
-20 -8 -3 -21 -5 -29 -3 -8 2 -14 -5 -14 -17 0 -17 6 -19 33 -17 49 5 37 -28
-15 -40 -29 -8 -50 10 -58 49 -5 25 -2 34 17 47 28 20 52 20 68 1z m-111 -23
c5 -9 11 -33 13 -51 3 -33 1 -35 -31 -42 -45 -9 -61 -2 -61 27 0 17 7 25 25
30 14 3 25 10 25 15 0 12 -17 11 -25 -1 -7 -11 -35 -2 -35 11 0 11 37 27 62
28 10 1 22 -7 27 -17z m-269 -16 c0 -8 -15 -20 -32 -27 l-33 -13 37 -4 c41 -4
63 -29 53 -61 -7 -24 -50 -43 -81 -35 -34 9 -28 39 8 39 15 0 27 5 25 10 -1 6
-16 9 -33 8 -29 -2 -33 1 -39 33 -7 42 -9 40 35 52 49 14 60 14 60 -2z m154 0
c25 -9 3 -36 -24 -29 -22 6 -26 -12 -9 -37 8 -11 12 -12 16 -2 5 14 43 17 43
3 0 -14 -41 -41 -61 -41 -24 0 -41 25 -42 62 -2 25 4 35 22 44 14 7 27 11 30
10 3 -2 14 -6 25 -10z m-276 -34 c2 -7 -10 -17 -27 -23 -40 -14 -41 -33 -2
-26 40 8 52 -19 15 -33 -21 -9 -25 -15 -20 -35 4 -14 4 -25 2 -25 -2 0 -11 -3
-19 -6 -12 -4 -20 10 -36 62 -11 38 -19 69 -17 71 7 7 82 31 90 29 6 -1 12 -8
14 -14z"/>
<path d="M875 2240 c-3 -5 1 -10 9 -10 9 0 16 5 16 10 0 6 -4 10 -9 10 -6 0
-13 -4 -16 -10z"/>
<path d="M2670 2370 c0 -5 5 -10 10 -10 6 0 10 5 10 10 0 6 -4 10 -10 10 -5 0
-10 -4 -10 -10z"/>
<path d="M290 2300 c0 -5 5 -10 10 -10 6 0 10 5 10 10 0 6 -4 10 -10 10 -5 0
-10 -4 -10 -10z"/>
<path d="M2720 2291 c0 -5 5 -13 10 -16 6 -3 10 -2 10 4 0 5 -4 13 -10 16 -5
3 -10 2 -10 -4z"/>
<path d="M2640 2160 c0 -13 5 -18 14 -14 8 3 12 12 9 20 -8 21 -23 17 -23 -6z"/>
<path d="M1355 2161 c-41 -17 -60 -50 -60 -107 0 -50 -2 -55 -27 -63 -23 -8
-28 -16 -28 -44 0 -49 23 -66 61 -45 16 10 31 13 34 7 8 -12 71 -12 94 1 10 5
24 23 31 40 13 31 13 31 24 8 20 -40 76 -31 76 12 0 10 9 20 20 23 15 4 20 14
20 36 0 20 -7 35 -20 43 -11 7 -20 18 -20 24 0 21 -29 36 -55 30 -16 -4 -25
-13 -25 -26 0 -31 -17 -24 -23 10 -4 19 -17 34 -36 45 -33 17 -38 17 -66 6z
m68 -29 c26 -28 27 -154 2 -182 -23 -26 -59 -26 -85 0 -16 16 -20 33 -20 94 0
66 3 77 22 90 30 21 61 20 81 -2z m109 -45 c-2 -11 7 -21 22 -27 28 -10 26
-37 -2 -42 -10 -2 -17 -13 -17 -28 0 -25 -29 -37 -31 -12 -1 6 -2 17 -3 22 0
6 -7 10 -15 10 -8 0 -16 6 -19 13 -6 18 3 37 19 37 8 0 14 10 14 26 0 19 4 25
18 22 10 -2 16 -11 14 -21z m-234 -134 c-2 -17 -9 -28 -18 -28 -9 0 -16 11
-18 28 -3 22 1 27 18 27 17 0 21 -5 18 -27z"/>
<path d="M1360 2040 c0 -53 2 -60 20 -60 18 0 20 7 20 60 0 53 -2 60 -20 60
-18 0 -20 -7 -20 -60z"/>
<path d="M1613 2154 c-7 -18 4 -224 13 -233 6 -7 302 -2 327 5 12 4 17 16 17
40 0 30 -5 37 -33 49 -33 13 -34 16 -36 76 -1 35 -4 66 -7 71 -3 4 -66 8 -140
8 -114 0 -136 -2 -141 -16z m67 -99 c0 -98 -1 -105 -20 -105 -19 0 -20 7 -20
105 0 98 1 105 20 105 19 0 20 -7 20 -105z m133 92 c8 -21 -5 -35 -36 -39 -35
-4 -36 -22 -2 -26 19 -3 25 -9 25 -28 0 -19 -5 -24 -25 -24 -16 0 -25 -6 -25
-15 0 -10 11 -15 35 -15 31 0 35 -3 35 -25 0 -24 -3 -25 -55 -25 l-55 0 -1 63
c0 34 -3 81 -5 105 l-5 42 54 0 c37 0 57 -4 60 -13z m65 -70 l3 -77 34 0 c28
0 35 -4 35 -20 0 -14 -9 -21 -34 -25 -69 -13 -71 -11 -74 103 -2 95 -1 103 15
100 15 -3 18 -16 21 -81z"/>
<path d="M1940 2156 c-5 -5 -10 -23 -10 -38 0 -21 7 -32 25 -40 23 -10 25 -17
25 -74 0 -52 3 -65 19 -74 21 -10 51 -4 63 14 4 6 5 35 2 64 -3 32 -1 52 6 52
11 0 14 -18 11 -66 -4 -57 73 -93 132 -63 12 7 25 17 29 23 11 15 9 68 -2 86
-5 9 -5 19 1 27 26 31 -49 89 -105 80 -17 -2 -38 -1 -46 3 -25 12 -139 17
-150 6z m103 -12 c27 -5 37 -11 37 -25 0 -12 -7 -19 -20 -19 -18 0 -20 -7 -20
-70 0 -63 -2 -70 -20 -70 -18 0 -20 7 -20 70 0 58 -3 72 -17 77 -18 7 -33 22
-33 36 0 9 41 9 93 1z m163 -24 c1 0 5 -8 8 -17 10 -24 -15 -35 -37 -16 -13
13 -20 14 -29 5 -6 -6 -10 -13 -7 -14 2 -2 22 -12 44 -23 66 -33 58 -90 -14
-100 -38 -4 -83 27 -65 45 9 9 17 9 31 -1 21 -13 53 -7 53 10 0 5 -19 15 -42
23 -40 12 -43 16 -46 51 -3 31 0 39 20 46 13 4 36 4 53 0 16 -5 31 -9 31 -9z"/>
<path d="M1168 2141 c-59 -8 -70 -19 -66 -62 2 -28 7 -35 30 -37 l26 -3 -20
-60 c-11 -33 -17 -66 -14 -74 7 -19 60 -20 75 -2 17 22 61 164 61 201 0 31
-16 49 -38 45 -4 -1 -28 -5 -54 -8z m72 -29 c0 -10 -13 -56 -28 -102 -23 -67
-33 -86 -49 -88 -21 -3 -21 -3 3 75 13 43 24 79 24 81 0 1 -16 2 -35 2 -28 0
-35 4 -35 19 0 20 18 26 88 30 25 1 32 -3 32 -17z"/>
<path d="M2645 2121 c-3 -6 -5 -76 -4 -156 1 -124 3 -144 15 -134 7 6 11 16 7
23 -10 16 -11 239 0 253 4 6 4 14 -2 17 -5 4 -12 2 -16 -3z"/>
<path d="M950 2090 c-6 -10 -9 -24 -8 -30 2 -7 -17 -13 -44 -15 -37 -3 -48 -1
-48 10 0 7 -9 16 -20 20 -23 7 -60 -10 -60 -29 0 -8 -13 -19 -29 -24 -39 -14
-49 -37 -42 -97 l6 -50 90 1 c151 1 269 6 282 11 19 8 17 123 -3 151 -8 12
-21 22 -28 22 -7 0 -18 11 -24 25 -14 31 -56 34 -72 5z m50 -20 c0 -13 7 -20
19 -20 33 0 51 -28 51 -80 0 -32 -5 -50 -14 -53 -11 -4 -16 7 -21 44 -9 62
-23 63 -27 2 -2 -35 -7 -48 -18 -48 -12 0 -16 18 -18 88 -2 73 0 87 13 87 8 0
15 -9 15 -20z m-172 -22 c-7 -19 -38 -22 -38 -4 0 10 9 16 21 16 12 0 19 -5
17 -12z m110 -30 c18 -18 16 -108 -3 -108 -10 0 -15 10 -15 29 0 16 -3 36 -6
45 -12 31 -24 16 -24 -30 0 -38 -3 -45 -17 -42 -26 5 -31 87 -7 105 22 16 56
17 72 1z m-108 -52 c0 -39 -4 -55 -15 -60 -12 -4 -15 5 -15 48 0 29 3 56 7 59
16 17 23 3 23 -47z m-50 34 c0 -6 -7 -13 -15 -16 -9 -4 -15 -11 -14 -18 4 -37
-2 -66 -16 -66 -19 0 -22 96 -2 103 22 9 47 7 47 -3z"/>
<path d="M1984 1745 c-7 -48 -3 -62 15 -50 12 7 12 95 0 95 -4 0 -11 -20 -15
-45z"/>
<path d="M1906 1758 c-16 -60 0 -101 23 -60 6 9 11 11 11 5 0 -7 6 -13 13 -13
7 0 12 14 13 35 1 37 -5 42 -24 23 -9 -9 -12 -7 -12 10 0 29 -16 28 -24 0z"/>
<path d="M2210 1755 c-14 -36 -13 -45 5 -45 9 0 15 9 15 25 0 14 5 25 10 25 6
0 10 -11 10 -25 0 -14 5 -25 11 -25 6 0 9 14 7 33 -4 43 -43 52 -58 12z"/>
<path d="M2290 1765 c-15 -18 -6 -45 15 -45 8 0 15 -4 15 -10 0 -5 -6 -7 -14
-4 -8 3 -17 0 -21 -6 -5 -8 3 -10 26 -8 32 3 34 5 37 46 3 39 1 42 -21 42 -14
0 -30 -7 -37 -15z m40 -15 c0 -5 -4 -10 -10 -10 -5 0 -10 5 -10 10 0 6 5 10
10 10 6 0 10 -4 10 -10z"/>
<path d="M2366 1758 c-9 -37 -8 -39 27 -36 27 2 32 7 32 28 0 20 -6 26 -26 28
-20 2 -28 -2 -33 -20z"/>
<path d="M2440 1755 c0 -17 7 -29 23 -35 l22 -9 -23 0 c-28 -1 -19 -21 9 -21
12 0 23 10 29 26 14 37 12 64 -5 64 -8 0 -15 -9 -15 -21 0 -11 -4 -18 -10 -14
-5 3 -7 12 -3 20 3 9 -1 15 -11 15 -10 0 -16 -9 -16 -25z"/>
<path d="M2588 1773 c7 -3 16 -2 19 1 4 3 -2 6 -13 5 -11 0 -14 -3 -6 -6z"/>
<path d="M2625 1771 c-3 -6 3 -15 14 -21 12 -6 22 -6 26 -1 3 6 -3 15 -14 21
-12 6 -22 6 -26 1z"/>
<path d="M1790 1760 c0 -5 5 -10 10 -10 6 0 10 5 10 10 0 6 -4 10 -10 10 -5 0
-10 -4 -10 -10z"/>
<path d="M2038 1763 c-13 -3 -18 -15 -18 -39 0 -41 15 -44 28 -6 9 24 10 25
11 5 1 -14 7 -23 17 -23 11 0 14 8 12 32 -3 33 -15 41 -50 31z"/>
<path d="M2105 1757 c-9 -23 2 -82 16 -84 25 -5 40 14 46 56 6 41 5 41 -26 41
-17 0 -34 -6 -36 -13z m35 -17 c0 -5 -5 -10 -11 -10 -5 0 -7 5 -4 10 3 6 8 10
11 10 2 0 4 -4 4 -10z m-5 -40 c3 -5 1 -10 -4 -10 -6 0 -11 5 -11 10 0 6 2 10
4 10 3 0 8 -4 11 -10z"/>
<path d="M1706 1729 c-10 -50 -7 -69 9 -69 9 0 15 9 15 25 0 14 5 25 10 25 6
0 8 -11 4 -26 -5 -20 -3 -25 7 -22 8 2 15 19 17 37 3 26 -1 34 -17 38 -12 3
-21 9 -21 14 0 23 -18 6 -24 -22z"/>
<path d="M1657 1736 c-8 -8 -17 -13 -20 -10 -3 3 -15 1 -26 -6 -25 -13 -30
-70 -6 -70 9 0 15 9 15 24 0 35 28 42 32 8 2 -16 10 -28 20 -30 14 -3 16 4 14
43 -4 54 -9 61 -29 41z"/>
<path d="M1832 1738 c-16 -16 -16 -71 0 -66 7 3 15 15 19 29 7 23 7 23 8 2 1
-14 7 -23 17 -23 25 0 15 64 -11 68 -11 1 -26 -3 -33 -10z"/>
<path d="M1786 1724 c-11 -28 -6 -54 9 -54 10 0 15 11 15 35 0 36 -13 47 -24
19z"/>
<path d="M1120 1715 c-14 -16 -3 -20 19 -6 8 5 9 11 3 15 -5 3 -15 -1 -22 -9z"/>
<path d="M1253 1713 c-7 -12 -13 -41 -13 -64 0 -38 2 -41 23 -35 12 3 28 6 35
6 6 0 12 5 12 10 0 6 -9 10 -19 10 -17 0 -20 8 -23 48 -3 43 -4 45 -15 25z"/>
<path d="M1320 1720 c0 -5 7 -10 15 -10 8 0 15 5 15 10 0 6 -7 10 -15 10 -8 0
-15 -4 -15 -10z"/>
<path d="M674 1710 c-36 -14 -35 -26 2 -22 19 2 34 9 34 14 0 6 14 8 30 6 17
-3 30 -1 30 4 0 10 -69 9 -96 -2z"/>
<path d="M1180 1710 c0 -5 7 -10 15 -10 8 0 15 5 15 10 0 6 -7 10 -15 10 -8 0
-15 -4 -15 -10z"/>
<path d="M1531 1711 c-7 -5 -11 -13 -7 -19 3 -6 2 -13 -4 -17 -5 -3 -10 -13
-10 -21 0 -11 9 -14 33 -12 29 3 32 6 32 38 0 36 -17 48 -44 31z"/>
<path d="M1378 1703 c-13 -3 -18 -15 -18 -44 0 -21 5 -39 10 -39 6 0 10 14 10
30 0 17 5 30 10 30 6 0 10 -11 10 -25 0 -14 4 -25 9 -25 13 0 19 46 9 64 -9
16 -11 17 -40 9z"/>
<path d="M1447 1703 c-4 -3 -7 -22 -7 -40 0 -32 2 -34 28 -31 16 2 27 9 27 18
0 8 4 18 9 21 16 12 -3 39 -27 39 -13 0 -27 -3 -30 -7z"/>
<path d="M302 1684 c-10 -12 -10 -14 2 -14 17 0 30 16 19 23 -5 3 -14 -1 -21
-9z"/>
<path d="M613 1692 c-7 -4 -9 -13 -4 -21 6 -9 10 -7 14 8 3 12 4 21 4 21 -1 0
-7 -4 -14 -8z"/>
<path d="M1320 1660 c0 -22 5 -40 10 -40 6 0 10 8 10 18 0 9 3 27 6 40 5 16 2
22 -10 22 -12 0 -16 -10 -16 -40z"/>
<path d="M800 1682 c0 -14 25 -20 84 -20 30 0 44 3 36 8 -7 5 -31 7 -53 4 -22
-2 -46 1 -54 7 -9 8 -13 8 -13 1z"/>
<path d="M1010 1673 c1 -67 33 -83 56 -28 17 41 17 45 4 45 -6 0 -14 -10 -19
-22 l-8 -23 -7 23 c-9 26 -26 29 -26 5z"/>
<path d="M1090 1664 c-13 -32 -13 -30 6 -48 21 -22 49 -6 63 35 6 18 11 34 11
35 0 2 -16 4 -35 4 -29 0 -37 -5 -45 -26z m40 -14 c0 -11 -4 -20 -10 -20 -5 0
-10 9 -10 20 0 11 5 20 10 20 6 0 10 -9 10 -20z"/>
<path d="M1180 1666 c0 -13 -3 -31 -6 -40 -4 -11 -1 -16 10 -16 12 0 16 10 16
40 0 22 -4 40 -10 40 -5 0 -10 -11 -10 -24z"/>
<path d="M350 1671 c0 -10 34 -21 65 -21 16 0 17 2 5 9 -8 6 -17 8 -21 5 -4
-2 -10 0 -14 6 -8 12 -35 13 -35 1z"/>
<path d="M563 1667 c-13 -5 -23 -14 -23 -19 0 -13 18 -10 23 5 4 9 8 9 15 -1
7 -11 10 -11 15 2 8 21 -3 26 -30 13z"/>
<path d="M494 1649 c-3 -6 -17 -8 -33 -4 -24 6 -25 5 -7 -8 16 -12 23 -12 48
0 15 8 28 16 28 19 0 9 -29 3 -36 -7z"/>
<path d="M918 1633 c7 -3 16 -2 19 1 4 3 -2 6 -13 5 -11 0 -14 -3 -6 -6z"/>
<path d="M2345 1618 c-71 -4 -146 -10 -165 -14 -19 -3 -58 -8 -85 -9 -47 -4
-521 -61 -575 -70 -63 -11 -382 -36 -466 -37 -52 -1 -94 -5 -94 -10 0 -4 8 -8
18 -9 9 -1 34 -3 54 -4 21 -2 40 0 43 6 4 5 13 9 21 9 9 0 12 -5 8 -11 -4 -8
1 -9 16 -4 13 4 51 9 84 10 34 2 72 7 85 11 18 5 22 4 17 -5 -6 -9 0 -10 21
-5 15 4 29 11 31 15 2 4 16 3 33 -1 16 -5 43 -5 60 0 18 5 35 7 40 5 4 -3 9
-1 11 4 4 13 58 22 58 10 0 -15 30 -10 36 6 4 10 20 15 51 15 27 0 42 -4 38
-10 -4 -6 2 -7 18 -1 13 5 48 12 78 16 30 4 57 12 60 17 4 7 8 6 10 -1 3 -8
27 -6 82 6 64 14 80 14 87 4 6 -11 8 -11 12 0 2 7 25 14 59 16 83 4 130 10
136 17 3 3 12 1 20 -5 7 -6 13 -7 13 -3 0 5 21 9 48 8 26 -1 55 2 64 7 10 5
27 5 42 -1 14 -5 28 -6 30 -1 6 9 37 8 54 -3 6 -4 12 -2 12 3 0 6 7 11 15 11
8 0 15 4 15 9 0 5 -15 9 -32 8 -18 -1 -91 -5 -163 -9z"/>
<path d="M2442 1494 c-11 -12 -9 -14 8 -14 11 0 20 4 20 9 0 17 -15 19 -28 5z"/>
<path d="M2614 1484 c3 -9 7 -30 7 -47 1 -22 3 -25 6 -12 3 11 10 26 15 33 7
8 7 17 -2 27 -16 20 -34 19 -26 -1z"/>
<path d="M1997 1449 c4 -25 2 -39 -6 -39 -6 0 -11 -14 -11 -31 0 -19 4 -28 11
-24 6 4 8 13 5 21 -3 7 -1 16 4 19 6 4 10 21 10 40 0 18 6 35 12 37 7 3 3 7
-9 10 -19 5 -20 2 -16 -33z"/>
<path d="M1880 1470 c0 -5 5 -10 11 -10 5 0 7 5 4 10 -3 6 -8 10 -11 10 -2 0
-4 -4 -4 -10z"/>
<path d="M2312 1453 c-1 -18 -6 -33 -12 -33 -5 0 -10 -13 -10 -29 0 -25 4 -29
25 -27 28 1 35 16 8 16 -16 1 -16 2 1 15 11 8 15 15 9 15 -7 0 -14 17 -16 38
-3 36 -4 36 -5 5z"/>
<path d="M1790 1435 c0 -19 -4 -35 -10 -35 -5 0 -10 -11 -10 -25 0 -14 6 -25
14 -25 9 0 14 15 15 51 0 28 3 55 6 60 4 5 1 9 -4 9 -6 0 -11 -16 -11 -35z"/>
<path d="M2421 1454 c0 -11 3 -14 6 -6 3 7 2 16 -1 19 -3 4 -6 -2 -5 -13z"/>
<path d="M2725 1460 c4 -6 11 -8 16 -5 14 9 11 15 -7 15 -8 0 -12 -5 -9 -10z"/>
<path d="M281 1446 c-7 -8 -11 -27 -9 -43 2 -23 9 -29 33 -32 22 -2 25 -5 13
-10 -15 -5 -16 -9 -5 -31 10 -20 20 -25 50 -25 l38 0 -6 -80 c-17 -231 -35
-521 -35 -544 1 -26 1 -26 14 4 7 17 11 37 9 46 -3 9 3 19 12 23 11 4 14 2 9
-6 -4 -7 12 -1 36 14 24 14 47 35 51 47 8 20 5 21 -48 21 l-56 0 6 91 c3 50 7
93 10 95 2 2 27 1 56 -3 71 -8 94 -32 88 -93 -2 -25 -7 -52 -11 -61 -5 -11 -1
-18 12 -21 16 -5 18 1 18 60 0 58 3 67 27 88 27 23 27 25 12 53 -8 17 -15 41
-15 54 0 14 -7 30 -15 37 -12 10 -15 9 -15 -4 0 -24 -57 -44 -112 -38 l-47 4
5 66 c3 37 10 79 14 94 5 17 5 30 -1 33 -5 4 -6 18 -3 33 14 63 -4 102 -47
102 -9 0 -19 9 -22 20 -6 24 -48 27 -66 6z"/>
<path d="M1690 1432 c0 -18 -4 -32 -10 -32 -5 0 -10 -13 -10 -30 0 -16 4 -30
9 -30 11 0 27 108 17 117 -3 4 -6 -8 -6 -25z"/>
<path d="M2212 1438 c-1 -16 -6 -28 -12 -28 -5 0 -10 -11 -10 -25 0 -14 5 -25
11 -25 5 0 8 4 5 9 -4 5 -1 11 5 13 6 2 9 20 6 43 -2 27 -4 31 -5 13z"/>
<path d="M1901 1428 c0 -16 -5 -28 -11 -28 -5 0 -10 -11 -10 -25 0 -16 6 -25
15 -25 12 0 13 4 6 18 -7 13 -7 22 0 29 6 6 9 21 6 34 -4 22 -4 22 -6 -3z"/>
<path d="M690 1407 c-14 -12 -40 -34 -59 -48 -37 -29 -67 -113 -49 -136 5 -6
18 -33 28 -60 l19 -48 1 39 c0 37 1 38 18 23 10 -10 26 -17 34 -17 9 0 18 -6
21 -12 3 -9 11 -7 26 7 25 24 19 61 -12 69 -17 4 -19 8 -9 18 6 6 12 18 12 25
0 20 51 73 70 73 11 0 21 -14 29 -37 7 -21 15 -43 17 -50 3 -6 -5 -14 -16 -18
-19 -6 -21 -12 -16 -38 6 -30 20 -47 40 -47 6 0 2 6 -8 13 -16 12 -15 13 13
11 17 -1 34 2 37 7 3 5 0 9 -6 9 -6 0 -8 5 -5 10 3 6 19 10 34 10 25 0 29 -4
35 -39 3 -22 10 -42 15 -45 5 -4 7 3 4 13 -3 10 0 28 6 39 6 11 12 43 13 70 4
89 -67 165 -154 165 -21 0 -41 4 -44 8 -10 17 -69 8 -94 -14z m165 -197 c3 -5
1 -10 -4 -10 -6 0 -11 5 -11 10 0 6 2 10 4 10 3 0 8 -4 11 -10z"/>
<path d="M2425 1410 c4 -6 11 -8 16 -5 14 9 11 15 -7 15 -8 0 -12 -5 -9 -10z"/>
<path d="M2501 1393 c0 -25 1 -26 9 -8 12 27 12 35 0 35 -5 0 -10 -12 -9 -27z"/>
<path d="M2080 1385 c0 -18 5 -25 19 -25 17 0 18 3 8 25 -15 32 -27 32 -27 0z"/>
<path d="M2400 1390 c0 -11 7 -20 15 -20 13 0 14 4 5 20 -6 11 -13 20 -15 20
-3 0 -5 -9 -5 -20z"/>
<path d="M1575 1392 c-17 -11 -16 -52 0 -52 9 0 12 6 9 15 -4 8 -1 22 6 30 13
16 3 20 -15 7z"/>
<path d="M2520 1380 c0 -5 7 -10 16 -10 8 0 12 5 9 10 -3 6 -10 10 -16 10 -5
0 -9 -4 -9 -10z"/>
<path d="M1341 1299 c-13 -10 -19 -19 -14 -19 13 0 49 27 43 33 -3 3 -16 -3
-29 -14z"/>
<path d="M434 1291 c25 -28 99 -30 94 -3 -2 13 -15 18 -58 20 -54 3 -54 3 -36
-17z"/>
<path d="M1390 1275 c0 -16 -3 -61 -6 -100 -4 -38 -4 -67 0 -64 4 4 10 40 12
80 3 40 7 76 9 79 2 3 0 12 -6 20 -6 11 -9 7 -9 -15z"/>
<path d="M2626 1133 c6 -147 9 -171 27 -195 12 -16 26 -28 31 -28 7 0 8 3 1 8
-5 4 -17 16 -25 26 -14 18 -13 18 10 13 14 -4 19 -4 13 -1 -7 3 -13 12 -13 20
0 8 -5 14 -10 14 -6 0 -8 10 -4 24 5 22 8 85 4 96 -6 16 -6 81 0 117 7 38 5
44 -17 58 l-24 16 7 -168z"/>
<path d="M2480 1280 c0 -4 -12 -5 -27 -3 -16 3 -174 -7 -353 -22 -179 -14
-369 -28 -423 -32 l-97 -6 15 -24 c9 -13 12 -23 8 -22 -20 3 -24 -2 -13 -16
10 -12 10 -18 1 -29 -7 -8 -8 -17 -3 -20 5 -3 12 -15 15 -26 3 -11 1 -18 -4
-14 -5 3 -9 -2 -9 -11 0 -10 6 -15 13 -12 8 3 14 -1 14 -9 0 -8 -4 -14 -9 -14
-4 0 -8 -4 -8 -8 0 -4 69 -2 153 4 83 6 199 15 257 18 58 4 119 9 135 11 17 3
57 7 90 9 33 3 103 8 155 12 52 5 106 8 120 8 27 0 26 -6 17 96 -2 14 -8 24
-15 22 -9 -1 -8 5 3 22 11 17 13 26 5 31 -6 4 -8 15 -5 25 5 14 1 18 -15 17
-11 -1 -20 -4 -20 -7z m-64 -57 c-4 -11 -2 -13 9 -9 9 3 15 0 15 -9 0 -9 -10
-16 -22 -16 -17 -1 -19 -2 -5 -6 9 -2 17 -8 17 -13 0 -5 -8 -11 -17 -13 -14
-4 -12 -5 5 -6 12 0 23 4 23 9 1 6 3 15 4 20 1 6 3 16 4 24 0 8 8 17 17 20 8
3 12 2 9 -4 -3 -5 -1 -18 5 -29 7 -14 7 -22 0 -26 -8 -5 -7 -11 1 -21 9 -11 6
-14 -17 -15 -16 0 -48 -2 -71 -5 -35 -5 -43 -3 -43 10 0 9 -4 16 -10 16 -5 0
-7 -7 -4 -15 4 -9 0 -15 -10 -15 -9 0 -17 8 -17 18 -1 16 -2 16 -6 0 -2 -10
-9 -18 -15 -18 -6 0 -17 8 -24 18 -12 15 -12 15 -7 -5 4 -17 1 -23 -11 -23
-10 0 -16 9 -17 23 0 12 -2 32 -5 45 -4 24 14 30 34 10 9 -9 12 -9 12 3 0 11
10 16 30 17 20 0 30 -4 30 -14 0 -8 5 -14 10 -14 6 0 9 3 9 8 -3 20 2 32 12
27 6 -4 17 2 25 14 17 23 39 18 30 -6z m-486 -37 c-5 -5 -10 -14 -10 -20 0 -6
5 -5 12 2 20 20 28 14 22 -17 -4 -16 -1 -32 5 -35 17 -11 13 -23 -8 -29 -15
-3 -18 -1 -14 12 5 13 3 14 -8 4 -22 -21 -42 -16 -29 7 7 14 8 26 0 39 -14 26
-13 31 6 31 8 0 13 4 10 8 -3 5 2 9 10 9 10 0 11 -4 4 -11z m132 7 c-6 -2 -9
-9 -6 -14 3 -6 11 -5 20 2 8 6 23 9 34 6 11 -3 23 -1 26 4 10 17 24 9 24 -13
0 -30 13 -50 30 -46 7 2 14 -2 17 -8 2 -7 -11 -13 -32 -16 -25 -3 -35 0 -35
10 0 10 -3 10 -16 -2 -18 -18 -23 -19 -44 -6 -8 5 -19 5 -25 1 -17 -14 -65
-19 -66 -7 -5 83 -5 82 25 84 17 2 32 5 35 7 2 3 9 5 15 4 6 0 5 -3 -2 -6z
m-337 -13 c-3 -5 -1 -10 4 -10 6 0 12 -10 12 -22 l2 -23 4 23 c3 17 11 22 34
22 16 0 29 -5 29 -11 0 -8 4 -8 14 1 8 6 25 10 38 8 17 -2 24 -11 26 -33 4
-35 -21 -59 -47 -45 -10 5 -23 5 -32 -1 -20 -13 -83 -11 -97 3 -9 9 -12 9 -12
-3 0 -11 -10 -16 -30 -17 -29 -1 -30 1 -30 42 0 41 1 43 30 44 18 0 34 -6 41
-16 8 -14 9 -10 5 16 -3 19 -1 32 5 32 6 0 7 -4 4 -10z m152 4 c-3 -3 -12 -4
-19 -1 -8 3 -5 6 6 6 11 1 17 -2 13 -5z m320 -100 c-3 -3 -12 -4 -19 -1 -8 3
-5 6 6 6 11 1 17 -2 13 -5z m-352 -14 c3 -6 -1 -7 -9 -4 -18 7 -21 14 -7 14 6
0 13 -4 16 -10z m125 -5 c11 -13 10 -14 -4 -9 -9 3 -16 10 -16 15 0 13 6 11
20 -6z m-255 -5 c-3 -5 -12 -10 -18 -10 -7 0 -6 4 3 10 19 12 23 12 15 0z
m195 -4 c0 -2 -7 -7 -16 -10 -8 -3 -12 -2 -9 4 6 10 25 14 25 6z"/>
<path d="M2093 1150 c1 -11 5 -20 9 -20 4 0 8 9 8 20 0 11 -4 20 -9 20 -6 0
-9 -9 -8 -20z"/>
<path d="M2020 1140 c0 -11 4 -20 9 -20 5 0 7 9 4 20 -3 11 -7 20 -9 20 -2 0
-4 -9 -4 -20z"/>
<path d="M1852 1130 c0 -14 2 -19 5 -12 2 6 2 18 0 25 -3 6 -5 1 -5 -13z"/>
<path d="M1030 1252 c0 -11 7 -25 15 -32 18 -15 20 -51 4 -67 -8 -8 -8 -13 0
-17 15 -10 14 -55 -3 -71 -7 -7 -28 -15 -47 -17 -31 -3 -34 -6 -37 -40 -3 -35
-1 -38 22 -38 35 0 58 -26 54 -63 -2 -17 2 -32 10 -34 8 -3 12 9 12 41 0 45 1
46 31 46 l31 0 -4 -57 c-2 -38 1 -57 10 -60 9 -3 12 12 12 56 l0 61 39 0 c67
0 101 -11 101 -31 0 -15 -8 -19 -40 -19 -47 0 -53 -15 -10 -23 21 -5 30 -12
30 -27 0 -16 -7 -20 -37 -21 l-38 -1 35 -8 c19 -4 42 -9 50 -11 12 -3 16 10
18 66 2 69 2 70 -28 87 -33 19 -40 44 -12 51 9 3 -2 5 -25 6 -63 2 -73 8 -73
50 0 37 1 38 57 54 63 17 73 15 73 -14 0 -15 -7 -19 -35 -19 -47 0 -45 -18 3
-22 31 -3 37 -7 36 -25 0 -13 2 -23 6 -23 4 0 10 32 13 71 4 47 12 78 24 91
15 17 11 16 -32 -5 -69 -34 -125 -51 -135 -41 -5 5 -5 25 -1 44 6 30 10 35 33
32 27 -3 47 14 32 28 -5 4 -51 11 -101 15 -88 7 -93 6 -93 -13z m104 -72 c-1
-25 -2 -66 -3 -92 -1 -46 -2 -48 -31 -48 l-30 0 6 83 c7 104 9 109 36 105 20
-3 23 -8 22 -48z"/>
<path d="M470 1208 c0 -13 -3 -33 -6 -45 -5 -19 -2 -23 19 -23 20 0 26 6 30
33 4 22 0 36 -11 45 -23 18 -32 15 -32 -10z"/>
<path d="M1435 1120 c-3 -6 1 -7 9 -4 18 7 21 14 7 14 -6 0 -13 -4 -16 -10z"/>
<path d="M746 1079 c6 -10 64 -8 64 2 0 4 -16 7 -35 7 -19 0 -32 -4 -29 -9z"/>
<path d="M738 1033 c6 -2 18 -2 25 0 6 3 1 5 -13 5 -14 0 -19 -2 -12 -5z"/>
<path d="M793 1033 c9 -2 25 -2 35 0 9 3 1 5 -18 5 -19 0 -27 -2 -17 -5z"/>
<path d="M2000 972 c0 -6 -6 -9 -14 -6 -8 3 -17 1 -21 -5 -3 -7 2 -11 14 -11
21 0 37 17 27 27 -3 4 -6 1 -6 -5z"/>
<path d="M1435 960 c3 -5 8 -10 11 -10 2 0 4 5 4 10 0 6 -5 10 -11 10 -5 0 -7
-4 -4 -10z"/>
<path d="M2168 963 c10 -4 10 -8 0 -21 -11 -13 -10 -15 4 -9 10 3 20 2 23 -3
4 -6 0 -10 -8 -10 -22 0 -39 -24 -26 -37 20 -20 49 -3 49 28 0 15 -5 31 -10
34 -6 4 -8 10 -6 14 3 4 -5 7 -17 8 -12 0 -16 -1 -9 -4z m32 -63 c0 -5 -7 -10
-15 -10 -8 0 -15 5 -15 10 0 6 7 10 15 10 8 0 15 -4 15 -10z"/>
<path d="M449 930 c-1 -16 -2 -36 -3 -42 -2 -26 34 -20 44 8 13 34 4 64 -21
64 -14 0 -19 -8 -20 -30z"/>
<path d="M633 953 c-8 -3 -13 -22 -13 -45 0 -32 3 -39 16 -34 9 3 20 6 25 6
14 0 11 56 -3 67 -7 6 -19 8 -25 6z"/>
<path d="M860 950 c-8 -5 -36 -10 -62 -10 -27 0 -48 -3 -48 -7 0 -4 10 -17 21
-29 l22 -23 43 30 c24 16 44 34 44 39 0 12 -1 12 -20 0z"/>
<path d="M1891 916 c-1 -45 0 -48 13 -30 14 18 15 18 21 2 4 -10 12 -18 17
-18 6 0 5 6 -2 15 -7 8 -10 24 -7 35 3 11 1 20 -4 20 -5 0 -9 -4 -9 -10 0 -20
-19 -10 -23 13 -2 12 -5 0 -6 -27z"/>
<path d="M2028 948 c-6 -17 10 -78 21 -78 4 0 7 16 6 36 -3 38 -19 64 -27 42z"/>
<path d="M2112 923 c2 -20 8 -38 13 -40 16 -5 13 65 -2 72 -11 4 -13 -4 -11
-32z"/>
<path d="M2706 952 c-3 -5 1 -9 9 -9 8 0 12 4 9 9 -3 4 -7 8 -9 8 -2 0 -6 -4
-9 -8z"/>
<path d="M140 935 c-8 -9 -8 -15 -2 -15 12 0 26 19 19 26 -2 2 -10 -2 -17 -11z"/>
<path d="M1370 915 c0 -19 4 -35 9 -35 5 0 7 9 4 21 -3 12 0 24 6 29 10 5 9 9
-3 13 -13 5 -16 -1 -16 -28z"/>
<path d="M1597 943 c-15 -14 -7 -72 11 -82 19 -10 52 3 52 21 0 7 -5 6 -15 -2
-21 -18 -45 -5 -45 25 0 27 31 48 38 27 2 -7 8 -10 13 -6 5 3 7 10 4 15 -7 10
-48 12 -58 2z"/>
<path d="M2231 913 c1 -36 2 -36 8 -9 9 41 31 46 31 7 0 -17 5 -31 10 -31 11
0 13 30 4 54 -3 9 -17 16 -30 16 -21 0 -24 -4 -23 -37z"/>
<path d="M2303 934 c-8 -21 10 -49 31 -48 9 1 16 -2 16 -7 0 -5 -7 -9 -15 -9
-8 0 -15 -5 -15 -11 0 -6 7 -8 16 -5 9 3 18 6 20 6 2 0 4 20 4 45 0 41 -2 45
-25 45 -15 0 -28 -7 -32 -16z m42 -17 c0 -26 -20 -25 -23 2 -3 16 1 22 10 19
7 -3 13 -12 13 -21z"/>
<path d="M1780 930 c-34 -5 -35 -6 -29 -40 l6 -35 2 33 c1 41 23 39 32 -4 l7
-29 1 33 c1 21 6 32 15 32 9 0 16 -13 19 -32 l4 -33 1 36 c2 41 -7 47 -58 39z"/>
<path d="M1955 920 c-4 -12 -1 -27 5 -35 14 -16 50 -20 50 -6 0 5 -9 7 -20 4
-11 -3 -20 0 -20 6 0 6 9 11 21 11 28 0 21 34 -8 38 -14 2 -23 -3 -28 -18z
m40 0 c3 -5 -1 -10 -9 -10 -9 0 -16 5 -16 10 0 6 4 10 9 10 6 0 13 -4 16 -10z"/>
<path d="M970 920 c0 -5 5 -10 11 -10 5 0 7 5 4 10 -3 6 -8 10 -11 10 -2 0 -4
-4 -4 -10z"/>
<path d="M1675 920 c-5 -9 -1 -10 14 -5 11 3 21 2 21 -3 0 -5 -9 -12 -21 -15
-29 -8 -19 -31 15 -35 26 -3 27 -1 24 30 -2 25 -8 34 -25 36 -11 2 -24 -2 -28
-8z m40 -40 c-3 -5 -10 -10 -16 -10 -5 0 -9 5 -9 10 0 6 7 10 16 10 8 0 12 -4
9 -10z"/>
<path d="M2660 870 c-6 -11 -7 -20 -2 -20 6 0 12 9 15 20 3 11 3 20 1 20 -2 0
-8 -9 -14 -20z"/>
<path d="M1360 849 c0 -18 2 -19 15 -9 15 12 12 30 -6 30 -5 0 -9 -10 -9 -21z"/>
<path d="M1940 844 c-157 -7 -300 -12 -317 -13 l-33 -1 0 -85 0 -85 78 1 c42
1 190 6 327 13 l250 11 -3 80 c-2 44 -7 82 -10 85 -4 3 -135 0 -292 -6z m270
-90 c0 -40 -2 -44 -24 -44 -13 0 -29 7 -36 15 -16 19 -3 55 21 55 11 0 19 7
19 16 0 8 5 12 10 9 6 -3 10 -26 10 -51z m-340 36 c0 -5 -9 -10 -20 -10 -11 0
-20 -4 -20 -10 0 -5 9 -10 19 -10 25 0 34 -14 26 -40 -7 -21 -55 -29 -55 -10
0 6 7 10 16 8 10 -2 19 3 21 10 3 7 -5 12 -21 12 -21 0 -26 5 -26 24 0 23 12
32 48 35 6 0 12 -3 12 -9z m93 -23 c13 -5 17 -15 15 -34 -2 -22 -9 -29 -29
-31 -25 -3 -27 0 -31 37 -5 52 1 69 16 50 6 -9 19 -18 29 -22z m-305 -30 c2
-28 -1 -47 -7 -47 -6 0 -11 15 -11 34 0 19 -5 38 -10 41 -13 8 -2 27 13 22 7
-2 13 -25 15 -50z m102 2 c0 -31 -4 -48 -10 -44 -5 3 -10 22 -10 41 0 19 -5
34 -11 34 -5 0 -7 5 -4 10 3 6 13 10 21 10 10 0 14 -13 14 -51z m290 15 c14
-37 13 -41 -16 -48 -41 -11 -55 11 -24 36 16 13 18 19 8 15 -18 -6 -24 3 -11
16 14 15 34 6 43 -19z m78 -11 c2 -19 -1 -33 -7 -33 -6 0 -11 11 -11 25 0 14
-4 25 -10 25 -5 0 -10 -11 -10 -25 0 -14 -4 -25 -10 -25 -5 0 -10 16 -10 36 0
33 2 35 28 32 22 -2 28 -8 30 -35z m-413 -13 c-3 -5 -15 -10 -26 -10 -10 0
-19 5 -19 10 0 6 12 10 26 10 14 0 23 -4 19 -10z m85 -20 c0 -5 -4 -10 -10
-10 -5 0 -10 5 -10 10 0 6 5 10 10 10 6 0 10 -4 10 -10z"/>
<path d="M2160 745 c0 -8 7 -15 15 -15 8 0 15 7 15 15 0 8 -7 15 -15 15 -8 0
-15 -7 -15 -15z"/>
<path d="M1940 740 c0 -11 5 -20 10 -20 6 0 10 9 10 20 0 11 -4 20 -10 20 -5
0 -10 -9 -10 -20z"/>
<path d="M2645 830 c3 -5 8 -10 11 -10 2 0 4 5 4 10 0 6 -5 10 -11 10 -5 0 -7
-4 -4 -10z"/>
<path d="M2674 828 c3 -10 1 -18 -5 -18 -6 0 -7 -5 -3 -11 4 -8 9 -7 16 2 5 9
6 3 2 -16 -9 -40 -12 -45 -30 -45 -14 0 -15 -26 -8 -214 l7 -214 -94 -6 c-92
-5 -259 -10 -694 -21 -268 -7 -306 -11 -298 -31 4 -10 17 -13 53 -9 127 12
213 14 230 5 14 -7 23 -6 36 7 15 16 17 16 30 -2 17 -23 18 -39 2 -29 -7 4 -8
3 -4 -5 9 -14 36 4 36 24 0 8 8 11 20 8 11 -3 20 -1 20 5 0 6 13 7 34 2 19 -4
39 -3 44 2 5 5 25 5 50 -1 27 -5 44 -5 48 1 3 5 19 6 35 3 19 -4 29 -3 29 5 0
6 5 8 11 4 18 -11 69 -15 69 -5 0 5 39 8 88 6 48 -2 93 2 100 7 8 7 16 7 26
-1 10 -9 16 -9 21 -1 4 7 11 7 18 2 22 -17 56 -20 74 -7 10 7 33 11 53 9 19
-2 29 -2 23 2 -18 8 -16 22 5 27 15 4 15 5 1 6 -13 1 -18 13 -21 47 -2 25 0
48 3 50 4 2 3 21 -2 41 -11 48 -11 53 0 53 5 0 12 -8 14 -17 4 -14 5 -13 6 4
1 14 -6 24 -19 28 -11 4 -18 11 -15 16 4 5 -1 12 -10 15 -14 6 -14 8 1 19 23
16 26 55 5 55 -13 1 -12 4 4 16 14 11 16 18 8 21 -20 7 -15 23 7 23 25 0 25
12 0 35 -15 13 -17 22 -10 36 14 25 12 42 -6 65 -13 16 -15 16 -10 2z m11
-108 c3 -5 1 -10 -4 -10 -6 0 -11 5 -11 10 0 6 2 10 4 10 3 0 8 -4 11 -10z
m-58 -436 c-3 -3 -12 -4 -19 -1 -8 3 -5 6 6 6 11 1 17 -2 13 -5z"/>
<path d="M1044 810 c0 -10 6 -16 13 -13 17 7 17 19 0 26 -7 3 -13 -3 -13 -13z"/>
<path d="M1360 789 c0 -16 4 -28 9 -25 8 5 3 56 -5 56 -2 0 -4 -14 -4 -31z"/>
<path d="M2755 810 c-3 -5 -1 -10 4 -10 6 0 11 5 11 10 0 6 -2 10 -4 10 -3 0
-8 -4 -11 -10z"/>
<path d="M593 791 c-23 -19 -32 -61 -13 -61 6 0 10 5 10 11 0 5 6 7 13 3 8 -5
8 -2 -2 9 -7 9 -9 17 -3 17 5 0 12 9 15 20 3 11 4 20 4 20 -1 -1 -12 -9 -24
-19z"/>
<path d="M928 738 c-21 -20 -38 -42 -38 -47 0 -6 -4 -11 -10 -11 -5 0 -10 4
-10 8 0 10 -20 9 -67 -2 -48 -11 -99 9 -127 51 -22 32 -24 33 -22 10 0 -15 12
-33 28 -43 28 -19 36 -37 44 -91 3 -25 -1 -36 -22 -52 -15 -12 -36 -21 -48
-21 -31 0 -60 -24 -53 -42 6 -16 16 -17 245 -34 l82 -6 -9 25 c-11 28 -12 175
-1 182 4 2 6 -8 4 -23 -4 -27 -4 -27 6 2 5 16 6 34 3 39 -3 6 -2 7 4 4 5 -3
19 6 29 21 16 21 18 31 10 47 -11 19 -13 18 -48 -17z m-88 -100 c0 -11 -47
-10 -54 0 -2 4 9 8 25 7 16 0 29 -3 29 -7z m61 -65 c-12 -20 -14 -14 -5 12 4
9 9 14 11 11 3 -2 0 -13 -6 -23z"/>
<path d="M463 692 c-18 -16 -33 -35 -33 -41 0 -15 -17 -14 -23 2 -3 6 -3 -21
-2 -61 3 -79 15 -102 51 -102 18 0 25 7 29 28 3 15 11 41 17 57 14 37 22 130
9 100 -7 -17 -9 -15 -12 14 l-4 34 -32 -31z"/>
<path d="M1072 708 c-7 -7 -12 -24 -12 -39 0 -15 -4 -31 -10 -34 -33 -21 9
-75 58 -75 33 0 58 29 48 55 -3 8 -1 17 4 20 15 10 12 52 -6 69 -18 19 -65 21
-82 4z m56 -39 c-2 -6 -8 -10 -13 -10 -5 0 -11 4 -13 10 -2 6 4 11 13 11 9 0
15 -5 13 -11z m-15 -45 c8 -8 -3 -34 -14 -34 -5 0 -9 9 -9 20 0 19 11 26 23
14z"/>
<path d="M2780 690 c0 -5 9 -10 20 -10 11 0 20 5 20 10 0 6 -9 10 -20 10 -11
0 -20 -4 -20 -10z"/>
<path d="M1245 646 c-26 -39 -31 -93 -10 -116 25 -27 71 -26 89 3 25 37 31
101 11 120 -25 25 -71 22 -90 -7z m54 -59 c-13 -49 -44 -53 -34 -4 4 17 12 38
18 45 17 22 27 -2 16 -41z"/>
<path d="M2194 642 c-22 -14 -21 -87 1 -96 22 -8 45 4 44 23 0 10 -2 11 -6 4
-2 -7 -13 -13 -24 -13 -15 0 -19 7 -19 35 0 28 4 35 20 35 11 0 20 -5 20 -12
0 -6 3 -8 6 -5 7 7 -14 37 -25 37 -3 0 -11 -4 -17 -8z"/>
<path d="M2261 603 c0 -30 3 -53 9 -53 6 0 10 14 10 30 0 40 17 38 29 -2 l10
-33 -2 35 c-2 28 -7 36 -24 38 -12 2 -24 11 -26 20 -3 9 -5 -7 -6 -35z"/>
<path d="M2335 640 c3 -5 8 -10 11 -10 2 0 4 5 4 10 0 6 -5 10 -11 10 -5 0 -7
-4 -4 -10z"/>
<path d="M2780 646 c0 -2 7 -6 15 -10 8 -3 15 -1 15 4 0 6 -7 10 -15 10 -8 0
-15 -2 -15 -4z"/>
<path d="M2402 618 c-14 -14 2 -38 25 -38 8 0 11 -5 8 -11 -4 -6 -14 -8 -24
-4 -12 5 -13 3 -4 -6 14 -14 43 -5 43 14 0 8 -10 19 -22 26 l-23 12 23 -5 c25
-5 30 9 6 18 -20 8 -18 8 -32 -6z"/>
<path d="M2465 620 c-5 -9 -1 -10 14 -5 12 4 21 2 21 -4 0 -6 -7 -11 -15 -11
-20 0 -32 -30 -15 -40 7 -4 21 -5 32 -2 28 7 21 66 -9 70 -11 2 -24 -2 -28 -8z
m35 -40 c0 -5 -7 -10 -16 -10 -8 0 -12 5 -9 10 3 6 10 10 16 10 5 0 9 -4 9
-10z"/>
<path d="M2534 608 c3 -13 6 -29 6 -35 0 -7 11 -13 25 -13 23 0 25 4 23 38 -1
36 -1 36 -5 5 -6 -43 -33 -45 -33 -3 0 17 -5 30 -11 30 -7 0 -9 -9 -5 -22z"/>
<path d="M2343 585 c0 -22 2 -30 4 -17 2 12 2 30 0 40 -3 9 -5 -1 -4 -23z"/>
<path d="M1167 574 c-14 -15 -6 -34 14 -34 14 0 19 5 17 17 -3 18 -20 27 -31
17z"/>
<path d="M2728 563 c7 -3 16 -2 19 1 4 3 -2 6 -13 5 -11 0 -14 -3 -6 -6z"/>
<path d="M1026 526 c-3 -13 -9 -31 -12 -40 -3 -9 -1 -16 4 -16 6 0 14 16 18
35 7 41 0 58 -10 21z"/>
<path d="M940 507 c0 -20 4 -38 9 -42 6 -3 7 10 4 32 -8 50 -13 55 -13 10z"/>
<path d="M1051 503 c-6 -20 -9 -38 -8 -39 1 -1 15 -6 31 -10 21 -5 27 -4 22 5
-4 6 -14 11 -22 11 -20 0 -17 20 4 21 10 0 12 3 5 6 -21 8 -15 23 10 23 18 0
19 2 7 10 -27 17 -39 11 -49 -27z"/>
<path d="M2245 514 c-159 -6 -296 -12 -302 -13 -9 -1 -13 -25 -13 -88 l0 -86
123 6 c67 4 218 10 335 13 l212 7 0 89 0 88 -32 -2 c-18 0 -163 -7 -323 -14z
m-1 -37 c-2 -7 -15 -13 -27 -14 -21 -2 -21 -1 -3 13 24 17 37 18 30 1z m141
-6 c-3 -5 5 -11 17 -13 18 -2 24 -11 26 -35 2 -19 -1 -33 -7 -33 -6 0 -11 11
-11 25 0 14 -4 25 -10 25 -5 0 -10 -11 -10 -25 0 -41 -18 -28 -22 16 -2 22 -2
42 1 45 8 8 22 4 16 -5z m-357 -47 c3 -43 -12 -60 -43 -48 -23 9 -18 26 5 19
11 -3 20 -2 20 3 0 5 -9 12 -20 15 -11 3 -20 14 -20 24 0 26 10 34 35 31 16
-2 21 -12 23 -44z m78 -11 c1 -20 -4 -33 -11 -33 -13 0 -26 56 -18 77 8 22 28
-9 29 -44z m464 42 c11 -13 9 -15 -11 -13 -16 2 -24 -2 -24 -12 0 -10 8 -14
25 -12 23 2 23 1 9 -13 -19 -19 -45 -11 -52 16 -5 18 15 49 32 49 5 0 14 -7
21 -15z m-252 -7 c15 -15 16 -58 2 -58 -5 0 -10 11 -10 25 0 14 -4 25 -10 25
-5 0 -10 -11 -10 -24 0 -39 -17 -40 -22 -1 -4 33 -1 37 33 44 3 0 10 -4 17
-11z m180 -20 c-2 -25 -8 -33 -22 -33 -10 0 -23 7 -29 16 -15 24 -1 49 28 49
24 0 26 -3 23 -32z m-358 -3 c0 -14 5 -25 10 -25 6 0 10 11 10 25 0 14 5 25
10 25 6 0 10 -16 10 -36 0 -33 -2 -35 -27 -32 -23 2 -29 8 -31 36 -2 18 1 32
7 32 6 0 11 -11 11 -25z m110 0 c0 -14 1 -28 3 -32 1 -5 -11 -8 -27 -8 -35 0
-47 24 -17 32 12 3 21 9 21 13 0 5 -10 6 -22 2 -14 -3 -19 -2 -14 6 4 7 18 12
32 12 19 0 24 -5 24 -25z m230 -55 c0 -5 -2 -10 -4 -10 -3 0 -8 5 -11 10 -3 6
-1 10 4 10 6 0 11 -4 11 -10z"/>
<path d="M1990 440 c0 -5 5 -10 10 -10 6 0 10 5 10 10 0 6 -4 10 -10 10 -5 0
-10 -4 -10 -10z"/>
<path d="M2465 437 c-4 -10 -5 -21 -1 -24 10 -10 18 4 13 24 -4 17 -4 17 -12
0z"/>
<path d="M1116 489 c-9 -45 -8 -46 19 -51 14 -3 25 -1 25 3 0 5 -7 9 -16 9
-13 0 -15 7 -10 35 4 19 3 35 -2 35 -5 0 -12 -14 -16 -31z"/>
<path d="M1187 500 c7 -8 8 -22 3 -41 -5 -16 -5 -29 0 -29 5 0 11 14 15 30 4
18 13 30 22 30 23 0 13 6 -22 14 -23 6 -27 5 -18 -4z"/>
<path d="M1243 475 c-3 -9 2 -22 13 -30 11 -7 16 -17 12 -21 -4 -4 -15 -1 -24
7 -15 12 -17 12 -12 -1 6 -20 58 -26 58 -7 0 8 -7 20 -15 27 -8 7 -15 17 -15
22 0 6 7 5 15 -2 9 -7 19 -10 22 -6 8 8 -16 26 -35 26 -7 0 -15 -7 -19 -15z"/>
<path d="M1826 448 c-12 -46 -70 -94 -129 -108 l-32 -8 38 -1 c31 -1 45 6 81
39 24 23 47 52 50 67 9 32 1 42 -8 11z"/>
<path d="M370 435 c-6 -14 -14 -36 -20 -50 -11 -28 -8 -30 21 -12 17 10 23 10
26 0 3 -7 9 -13 14 -13 12 0 11 16 -2 63 -12 43 -25 47 -39 12z m30 -36 c0 -5
-7 -9 -15 -9 -9 0 -12 6 -9 15 6 15 24 11 24 -6z"/>
<path d="M517 408 c-6 -47 4 -77 13 -39 8 36 30 39 31 4 0 -27 1 -27 9 -5 11
26 3 52 -16 52 -8 0 -14 7 -14 15 0 33 -18 12 -23 -27z"/>
<path d="M620 389 c0 -31 4 -48 10 -44 6 3 10 14 11 23 0 14 3 13 16 -5 22
-33 36 -28 19 5 -13 26 -13 31 1 45 9 9 14 20 10 23 -4 4 -15 -4 -26 -17 l-20
-24 -1 23 c0 12 -4 22 -10 22 -5 0 -10 -23 -10 -51z"/>
<path d="M1416 423 c-6 -14 -5 -15 5 -6 7 7 10 15 7 18 -3 3 -9 -2 -12 -12z"/>
<path d="M440 395 c0 -19 5 -35 10 -35 6 0 10 11 10 25 0 14 5 25 10 25 6 0
10 -14 10 -31 0 -17 4 -28 10 -24 16 10 12 62 -6 69 -34 13 -44 7 -44 -29z"/>
<path d="M710 423 c-1 -5 -3 -25 -6 -45 -4 -24 -2 -38 5 -38 6 0 11 12 11 26
0 16 5 24 13 21 6 -2 12 -13 12 -24 0 -12 3 -25 8 -29 4 -4 7 10 7 30 0 29 -4
39 -20 43 -11 3 -17 9 -14 14 3 5 0 9 -5 9 -6 0 -11 -3 -11 -7z"/>
<path d="M795 421 c-3 -6 3 -9 14 -8 11 0 17 5 15 9 -7 11 -22 10 -29 -1z"/>
<path d="M860 420 c0 -5 5 -10 10 -10 6 0 10 5 10 10 0 6 -4 10 -10 10 -5 0
-10 -4 -10 -10z"/>
<path d="M784 386 c-11 -29 0 -51 26 -51 21 0 25 5 25 30 0 24 -5 31 -23 33
-13 2 -24 -3 -28 -12z m36 -16 c0 -19 -11 -26 -23 -14 -8 8 3 34 14 34 5 0 9
-9 9 -20z"/>
<path d="M857 368 c-4 -31 -2 -47 7 -37 8 10 15 69 7 69 -5 0 -11 -15 -14 -32z"/>
<path d="M2760 369 c0 -5 5 -7 10 -4 6 3 10 8 10 11 0 2 -4 4 -10 4 -5 0 -10
-5 -10 -11z"/>
<path d="M1337 353 c-3 -5 -9 -51 -13 -102 l-7 -92 -71 5 c-39 3 -179 13 -311
21 -132 8 -301 20 -375 25 -151 11 -236 13 -228 5 3 -3 32 -8 64 -10 32 -3 60
-9 63 -13 3 -5 43 -8 89 -8 48 1 82 -3 82 -9 0 -6 4 -5 8 1 4 7 25 10 52 7 53
-5 95 -11 95 -13 0 -6 51 -11 112 -11 62 -1 71 -3 67 -17 -4 -13 -2 -12 11 3
12 15 18 17 24 7 4 -7 16 -13 27 -12 74 3 88 1 113 -14 8 -5 16 -3 22 5 6 10
9 8 9 -9 0 -18 3 -21 18 -14 9 5 38 8 65 7 28 -1 47 2 47 9 0 6 5 3 11 -6 13
-24 29 -23 29 2 0 11 -5 20 -10 20 -7 0 -7 7 0 20 6 11 8 25 5 30 -3 6 -1 10
4 10 6 0 11 7 11 16 0 8 -5 12 -11 8 -7 -4 -9 0 -5 14 4 11 8 34 11 51 2 17 6
34 9 39 2 4 1 14 -3 21 -5 7 -11 9 -14 4z m-464 -180 c-7 -2 -19 -2 -25 0 -7
3 -2 5 12 5 14 0 19 -2 13 -5z"/>
<path d="M2800 330 c0 -5 5 -10 10 -10 6 0 10 5 10 10 0 6 -4 10 -10 10 -5 0
-10 -4 -10 -10z"/>
<path d="M348 305 c2 -14 6 -25 7 -25 1 0 5 11 7 25 3 16 1 25 -7 25 -8 0 -10
-9 -7 -25z"/>
<path d="M382 300 c0 -14 2 -19 5 -12 2 6 2 18 0 25 -3 6 -5 1 -5 -13z"/>
<path d="M412 300 c0 -14 2 -19 5 -12 2 6 2 18 0 25 -3 6 -5 1 -5 -13z"/>
<path d="M432 295 c0 -16 2 -22 5 -12 2 9 2 23 0 30 -3 6 -5 -1 -5 -18z"/>
<path d="M453 305 c0 -8 4 -12 9 -9 5 3 6 10 3 15 -9 13 -12 11 -12 -6z"/>
<path d="M488 295 c2 -14 6 -25 7 -25 1 0 5 11 7 25 3 16 1 25 -7 25 -8 0 -10
-9 -7 -25z"/>
<path d="M540 304 c0 -5 7 -18 15 -28 8 -11 15 -16 15 -10 0 5 -7 18 -15 28
-8 11 -15 16 -15 10z"/>
<path d="M2750 300 c-13 -8 -12 -10 3 -10 9 0 17 5 17 10 0 12 -1 12 -20 0z"/>
<path d="M611 281 c-1 -7 -7 -11 -16 -7 -12 4 -13 2 -3 -14 11 -17 14 -17 21
-4 5 8 6 20 3 27 -3 8 -5 8 -5 -2z"/>
<path d="M651 274 c0 -11 3 -14 6 -6 3 7 2 16 -1 19 -3 4 -6 -2 -5 -13z"/>
<path d="M704 275 c-4 -9 -4 -19 0 -22 3 -4 6 2 6 13 0 16 2 17 10 4 6 -9 10
-10 10 -3 0 19 -20 26 -26 8z"/>
<path d="M743 275 c-3 -9 -3 -19 1 -22 3 -4 6 1 6 11 0 10 5 14 12 10 7 -4 8
-3 4 4 -10 16 -15 15 -23 -3z"/>
<path d="M802 270 c0 -14 2 -19 5 -12 2 6 2 18 0 25 -3 6 -5 1 -5 -13z"/>
<path d="M832 270 c0 -14 2 -19 5 -12 2 6 2 18 0 25 -3 6 -5 1 -5 -13z"/>
<path d="M670 261 c0 -25 6 -27 13 -6 4 8 2 17 -3 20 -6 4 -10 -3 -10 -14z"/>
<path d="M870 266 c0 -8 -6 -17 -12 -19 -8 -3 -6 -6 5 -6 11 -1 17 6 17 19 0
11 -2 20 -5 20 -3 0 -5 -6 -5 -14z"/>
<path d="M951 264 c0 -11 3 -14 6 -6 3 7 2 16 -1 19 -3 4 -6 -2 -5 -13z"/>
<path d="M975 269 c-4 -6 -5 -12 -2 -15 2 -3 7 2 10 11 7 17 1 20 -8 4z"/>
<path d="M891 254 c0 -11 3 -14 6 -6 3 7 2 16 -1 19 -3 4 -6 -2 -5 -13z"/>
<path d="M911 254 c0 -11 3 -14 6 -6 3 7 2 16 -1 19 -3 4 -6 -2 -5 -13z"/>
<path d="M1047 249 c4 -13 8 -18 11 -10 2 7 -1 18 -6 23 -8 8 -9 4 -5 -13z"/>
<path d="M131 244 c0 -11 3 -14 6 -6 3 7 2 16 -1 19 -3 4 -6 -2 -5 -13z"/>
<path d="M990 251 c0 -10 19 -25 25 -20 1 2 -3 10 -11 17 -8 7 -14 8 -14 3z"/>
<path d="M1092 246 c7 -8 15 -12 17 -11 5 6 -10 25 -20 25 -5 0 -4 -6 3 -14z"/>
<path d="M2690 240 c0 -5 5 -10 11 -10 5 0 7 5 4 10 -3 6 -8 10 -11 10 -2 0
-4 -4 -4 -10z"/>
<path d="M2540 215 c0 -14 2 -25 4 -25 2 0 6 11 8 25 3 14 1 25 -3 25 -5 0 -9
-11 -9 -25z"/>
<path d="M2317 211 c-4 -17 -3 -21 5 -13 5 5 8 16 6 23 -3 8 -7 3 -11 -10z"/>
<path d="M2750 220 c-8 -5 -11 -12 -7 -16 4 -4 15 0 24 9 18 18 8 23 -17 7z"/>
<path d="M2400 210 c0 -5 5 -10 10 -10 6 0 10 5 10 10 0 6 -4 10 -10 10 -5 0
-10 -4 -10 -10z"/>
<path d="M2190 190 c0 -5 5 -10 10 -10 6 0 10 5 10 10 0 6 -4 10 -10 10 -5 0
-10 -4 -10 -10z"/>
<path d="M2080 174 c0 -8 5 -12 10 -9 6 4 8 11 5 16 -9 14 -15 11 -15 -7z"/>
<path d="M2275 170 c3 -5 8 -10 11 -10 2 0 4 5 4 10 0 6 -5 10 -11 10 -5 0 -7
-4 -4 -10z"/>
<path d="M2350 149 c0 -5 5 -7 10 -4 6 3 10 8 10 11 0 2 -4 4 -10 4 -5 0 -10
-5 -10 -11z"/>
<path d="M2760 140 c0 -5 5 -10 11 -10 5 0 7 5 4 10 -3 6 -8 10 -11 10 -2 0
-4 -4 -4 -10z"/>
<path d="M1440 136 c0 -2 7 -7 16 -10 8 -3 12 -2 9 4 -6 10 -25 14 -25 6z"/>
<path d="M2110 114 c0 -3 7 -12 15 -20 16 -17 18 -14 9 10 -6 15 -24 23 -24
10z"/>
<path d="M2230 109 c0 -5 5 -7 10 -4 6 3 10 8 10 11 0 2 -4 4 -10 4 -5 0 -10
-5 -10 -11z"/>
<path d="M2790 109 c0 -5 5 -7 10 -4 6 3 10 8 10 11 0 2 -4 4 -10 4 -5 0 -10
-5 -10 -11z"/>
<path d="M465 100 c-3 -5 1 -10 10 -10 9 0 13 5 10 10 -3 6 -8 10 -10 10 -2 0
-7 -4 -10 -10z"/>
<path d="M1910 100 c0 -5 5 -10 11 -10 5 0 7 5 4 10 -3 6 -8 10 -11 10 -2 0
-4 -4 -4 -10z"/>
<path d="M2585 100 c3 -5 8 -10 11 -10 2 0 4 5 4 10 0 6 -5 10 -11 10 -5 0 -7
-4 -4 -10z"/>
<path d="M2016 93 c-3 -3 -3 -10 0 -14 7 -12 34 -11 34 0 0 11 -26 22 -34 14z"/>
<path d="M2490 90 c0 -5 5 -10 11 -10 5 0 7 5 4 10 -3 6 -8 10 -11 10 -2 0 -4
-4 -4 -10z"/>
<path d="M2450 76 c0 -9 5 -16 10 -16 6 0 10 4 10 9 0 6 -4 13 -10 16 -5 3
-10 -1 -10 -9z"/>
<path d="M2635 80 c3 -5 8 -10 11 -10 2 0 4 5 4 10 0 6 -5 10 -11 10 -5 0 -7
-4 -4 -10z"/>
<path d="M1680 66 c0 -2 9 -6 20 -9 11 -3 18 -1 14 4 -5 9 -34 13 -34 5z"/>
<path d="M2151 34 c0 -11 3 -14 6 -6 3 7 2 16 -1 19 -3 4 -6 -2 -5 -13z"/>
<path d="M2230 41 c0 -5 5 -13 10 -16 6 -3 10 -2 10 4 0 5 -4 13 -10 16 -5 3
-10 2 -10 -4z"/>
<path d="M2520 30 c-13 -8 -13 -10 2 -10 9 0 20 5 23 10 8 13 -5 13 -25 0z"/>
<path d="M1940 21 c0 -5 5 -13 10 -16 6 -3 10 -2 10 4 0 5 -4 13 -10 16 -5 3
-10 2 -10 -4z"/>
<path d="M2695 20 c-3 -5 -2 -10 4 -10 5 0 13 5 16 10 3 6 2 10 -4 10 -5 0
-13 -4 -16 -10z"/>
<path d="M2785 10 c3 -5 8 -10 11 -10 2 0 4 5 4 10 0 6 -5 10 -11 10 -5 0 -7
-4 -4 -10z"/>
<path d="M1758 3 c6 -2 18 -2 25 0 6 3 1 5 -13 5 -14 0 -19 -2 -12 -5z"/>
</g>
</svg>
